<?xml version="1.0" encoding="UTF-8" standalone="no"?>
<svg width="52px" height="32px" viewBox="0 0 52 32" version="1.1" xmlns="http://www.w3.org/2000/svg" xmlns:xlink="http://www.w3.org/1999/xlink" xmlns:sketch="http://www.bohemiancoding.com/sketch/ns">
    <!-- Generator: Sketch 3.3.3 (12081) - http://www.bohemiancoding.com/sketch -->
    <title>Maestro</title>
    <desc>Created with Sketch.</desc>
    <defs></defs>
    <g id="Page-1" stroke="none" stroke-width="1" fill="none" fill-rule="evenodd" sketch:type="MSPage">
        <g id="Maestro" sketch:type="MSArtboardGroup">
            <path d="M51.9999994,16.0000001 C52.0024324,24.8343183 44.9525544,31.9974432 36.2539537,31.9999995 C27.5550488,32.0022363 20.5024335,24.8426264 20.5000005,16.0079886 L20.5000005,16.0000001 C20.4978716,7.16568183 27.5474455,0.00223746326 36.245742,6.84301306e-07 C44.9446469,-0.0025556345 51.9975663,7.1573738 51.9999994,15.9920116 L51.9999994,16.0000001 L51.9999994,16.0000001 Z" id="path-1" fill="#D82331" sketch:type="MSShapeGroup"></path>
            <path d="M15.4000309,0.000142053967 C6.89008613,0.0557561821 -3.55271368e-15,7.20249127 -3.55271368e-15,16.000071 C-3.55271368e-15,24.8318503 6.94396169,32 15.5,32 C19.5155254,32 23.1757714,30.4201113 25.9303093,27.8311777 C25.93001,27.8311777 25.9297108,27.8308581 25.9288128,27.8305385 L25.9324046,27.8305385 C26.4963022,27.2999669 27.0221875,26.727525 27.5058703,26.117048 L24.3302052,26.117048 C23.9060846,25.5883942 23.5208743,25.0373669 23.1745743,24.46908 L28.6513247,24.46908 C28.9844553,23.9186919 29.2861584,23.3475284 29.5537405,22.7555895 L22.2703626,22.7555895 C22.0222357,22.2064799 21.8067334,21.6445854 21.6226587,21.0747004 L30.2023424,21.0747004 C30.7192484,19.4797895 31,17.7736503 31,15.9997514 C31,14.8238642 30.8763854,13.6773821 30.6426254,12.5737293 L21.1677094,12.5737293 C21.2850385,12.0054424 21.4331963,11.4441872 21.6097884,10.8928403 L30.1924651,10.8928403 C30.0006083,10.3060153 29.7779227,9.73389297 29.5244083,9.17966941 L22.2694648,9.17966941 C22.5310606,8.60243312 22.8276755,8.04117789 23.1590101,7.49909995 L28.6315703,7.49909995 C28.267611,6.9001294 27.8644422,6.32768743 27.4286488,5.78560949 L24.3771965,5.78560949 C24.8492064,5.21252827 25.368507,4.67268768 25.9324046,4.16960356 C23.1778666,1.58003076 19.5164234,0.000142053967 15.5,0.000142053967 C15.4664774,0.000142053967 15.4335535,-0.000177567459 15.4000309,0.000142053967 L15.4000309,0.000142053967 L15.4000309,0.000142053967 Z" id="path-3" fill="#0092C7" sketch:type="MSShapeGroup"></path>
            <path d="M12.8994178,19.0854041 L13.9518121,13.3339574 L11.5422065,19.0854041 L9.93580274,19.0854041 L9.65879799,13.362979 L8.60640375,19.0854041 L7,19.0854041 L8.35705153,11.6000004 L11.1267793,11.6000004 L11.2652017,16.2239413 L13.2040751,11.6000004 L16.0567604,11.6000004 L14.6720564,19.0854041 L12.8994178,19.0854041 Z M34.3369957,18.9986728 C33.838451,19.1429468 33.4778493,19.2008232 33.0629017,19.2008232 C32.1764226,19.2008232 31.6781976,18.7384791 31.6781976,17.8715007 C31.6781976,17.698205 31.7056903,17.5245757 31.733183,17.3222586 L31.8439529,16.7154737 L31.9269105,16.2531297 L32.7304321,11.6000004 L34.4750985,11.6000004 L34.2262258,12.9871993 L35.1398779,12.9871993 L34.891165,14.4611295 L33.9765538,14.4611295 L33.533634,17.0043554 C33.5059815,17.1199414 33.4778493,17.2066726 33.4778493,17.2643822 C33.4778493,17.5822855 33.6717368,17.726893 34.0876434,17.726893 C34.281371,17.726893 34.4472861,17.698205 34.5582159,17.6688499 L34.3369957,18.9986728 Z M39.4607044,13.0449089 C39.322122,12.9871993 39.2944694,12.9871993 39.2664973,12.9871993 C39.1835397,12.9583445 39.1283945,12.9583445 39.1283945,12.9293229 L38.9343474,12.9293229 C38.3528451,12.9293229 37.9375779,13.1895165 37.4113807,13.9118874 L37.5774556,12.9871993 L35.9707323,12.9871993 L34.891165,19.0854041 L36.6633241,19.0854041 C37.300451,15.3572964 37.5499629,14.6923015 38.40831,14.6923015 C38.4636151,14.6923015 38.5465726,14.7211563 38.6295302,14.7211563 L38.8237373,14.7790327 L39.4607044,13.0449089 Z M27.3568917,14.9234735 C27.3568917,15.6751996 27.7726386,16.2239413 28.7147423,16.5997209 C29.434667,16.9177909 29.5451172,17.0043554 29.5451172,17.2935706 C29.5451172,17.6688499 29.2128075,17.8423123 28.5202157,17.8423123 C27.9941784,17.8423123 27.4957937,17.7559146 26.9142915,17.5822855 L26.692272,18.9986728 L26.7752296,18.9986728 L27.0800468,19.0854041 C27.1911363,19.0854041 27.3568917,19.1140919 27.5509388,19.1140919 C27.9666857,19.1721352 28.2988358,19.1721352 28.5480281,19.1721352 C30.4041038,19.1721352 31.2905828,18.536162 31.2905828,17.148963 C31.2905828,16.3110061 30.9303008,15.8194736 30.0161692,15.4438608 C29.2681126,15.1546456 29.1853148,15.0679144 29.1853148,14.7790327 C29.1853148,14.4611295 29.4902917,14.2876671 30.0717939,14.2876671 C30.4041038,14.2876671 30.9028081,14.3166887 31.3454084,14.3743983 L31.5947606,12.9871993 C31.1238684,12.9004681 30.4312767,12.8714465 30.0435021,12.8714465 C28.0494834,12.8714465 27.3568917,13.7963014 27.3568917,14.9234735 Z M19.1034929,16.3685489 C18.9096056,16.3395273 18.8264882,16.3395273 18.7157183,16.3395273 C17.718629,16.3395273 17.2200845,16.6577641 17.2200845,17.2643822 C17.2200845,17.6403286 17.4416243,17.9005223 17.8293989,17.9005223 C18.5496434,17.9005223 19.0756806,17.2643822 19.1034929,16.3685489 Z M20.3775869,19.0854041 L18.9372581,19.0854041 L18.9649107,18.4494307 C18.5218309,18.9409632 17.9125165,19.1721352 17.1093146,19.1721352 C16.1676902,19.1721352 15.5029108,18.5073071 15.5029108,17.5245757 C15.5029108,16.0506457 16.6384225,15.1835004 18.6051082,15.1835004 C18.7988357,15.1835004 19.048028,15.1835004 19.3250329,15.212522 C19.3806576,15.0102048 19.3806576,14.9234735 19.3806576,14.8367423 C19.3806576,14.4322747 19.0756806,14.2876671 18.244986,14.2876671 C17.7462815,14.2876671 17.192432,14.3455435 16.8048171,14.4322747 L16.5554649,14.5190059 L16.3892301,14.5478607 L16.6384225,13.1895165 C17.5247417,12.9583445 18.0785914,12.8714465 18.7433708,12.8714465 C20.2666572,12.8714465 21.0422065,13.478565 21.0422065,14.6345919 C21.0422065,14.9523283 21.0147138,15.1835004 20.9037841,15.8484952 L20.5438217,18.0159414 L20.4885166,18.3915543 L20.4328919,18.7096244 L20.4052394,18.9119417 L20.3775869,19.0854041 Z M25.2244506,15.3282748 L25.2244506,15.0102048 C25.2244506,14.5190059 24.9197934,14.2299575 24.3935962,14.2299575 C23.8395868,14.2299575 23.4518121,14.6345919 23.2855773,15.3282748 L25.2244506,15.3282748 Z M26.1663947,18.9409632 C25.5569203,19.1140919 24.9752582,19.2008232 24.3659437,19.2008232 C22.3995777,19.2008232 21.3745162,18.2469467 21.3745162,16.4552801 C21.3745162,14.3743983 22.6764226,12.8424249 24.4492211,12.8424249 C25.88923,12.8424249 26.8032019,13.7095702 26.8032019,15.0390596 C26.8032019,15.5014036 26.7478969,15.9352264 26.6093145,16.5416777 L23.0920097,16.5416777 L23.0920097,16.7441617 C23.0920097,17.4378446 23.5903943,17.813791 24.615296,17.813791 C25.2522631,17.813791 25.833925,17.698205 26.4429199,17.4378446 L26.1663947,18.9409632 Z M43.1167513,15.530592 C43.1167513,14.8946187 42.8673991,14.3166887 42.1471548,14.3166887 C41.2609954,14.3166887 40.7073055,15.4148392 40.7073055,16.3974037 C40.7073055,17.2066726 41.0949204,17.7559146 41.704235,17.7559146 C42.0920096,17.7559146 42.9227041,17.2066726 43.0614462,16.2818177 C43.1167513,16.0506457 43.1167513,15.7906188 43.1167513,15.530592 Z M44.9450146,16.3110061 C44.6676903,18.3338447 43.3104789,19.2295112 41.5100279,19.2295112 C39.5439816,19.2295112 38.7406199,17.9870867 38.7406199,16.4262585 C38.7406199,14.2876671 40.0975115,12.8137369 42.2026197,12.8137369 C44.0307232,12.8137369 45,14.0274734 45,15.55928 C45,15.9352264 45,15.9637477 44.9450146,16.3110061 L44.9450146,16.3110061 L44.9450146,16.3110061 Z" id="Fill-16" fill="#FFFFFF" sketch:type="MSShapeGroup"></path>
        </g>
    </g>
</svg>