<?xml version="1.0" encoding="UTF-8" standalone="no"?>
<svg width="52px" height="32px" viewBox="0 0 52 32" version="1.1" xmlns="http://www.w3.org/2000/svg" xmlns:xlink="http://www.w3.org/1999/xlink" xmlns:sketch="http://www.bohemiancoding.com/sketch/ns">
    <!-- Generator: Sketch 3.3.3 (12081) - http://www.bohemiancoding.com/sketch -->
    <title>MasterCard</title>
    <desc>Created with Sketch.</desc>
    <defs></defs>
    <g id="Page-1" stroke="none" stroke-width="1" fill="none" fill-rule="evenodd" sketch:type="MSPage">
        <g id="MasterCard" sketch:type="MSArtboardGroup">
            <g id="path-1-+-path-3-+-path-5" sketch:type="MSLayerGroup">
                <path d="M51.9999994,16.0000001 C52.0024324,24.8343183 44.9525544,31.9974432 36.2539537,31.9999995 C27.5550488,32.0022363 20.5024335,24.8426264 20.5000005,16.0079886 L20.5000005,16.0000001 C20.4978716,7.16568183 27.5474455,0.00223746326 36.245742,6.84301306e-07 C44.9446469,-0.0025556345 51.9975663,7.1573738 51.9999994,15.9920116 L51.9999994,16.0000001 L51.9999994,16.0000001 Z" id="path-1" fill="#FF9600" sketch:type="MSShapeGroup"></path>
                <path d="M15.4000309,0.000142053967 C6.89008613,0.0557561821 -3.55271368e-15,7.20249127 -3.55271368e-15,16.000071 C-3.55271368e-15,24.8318503 6.94396169,32 15.5,32 C19.5155254,32 23.1757714,30.4201113 25.9303093,27.8311777 C25.93001,27.8311777 25.9297108,27.8308581 25.9288128,27.8305385 L25.9324046,27.8305385 C26.4963022,27.2999669 27.0221875,26.727525 27.5058703,26.117048 L24.3302052,26.117048 C23.9060846,25.5883942 23.5208743,25.0373669 23.1745743,24.46908 L28.6513247,24.46908 C28.9844553,23.9186919 29.2861584,23.3475284 29.5537405,22.7555895 L22.2703626,22.7555895 C22.0222357,22.2064799 21.8067334,21.6445854 21.6226587,21.0747004 L30.2023424,21.0747004 C30.7192484,19.4797895 31,17.7736503 31,15.9997514 C31,14.8238642 30.8763854,13.6773821 30.6426254,12.5737293 L21.1677094,12.5737293 C21.2850385,12.0054424 21.4331963,11.4441872 21.6097884,10.8928403 L30.1924651,10.8928403 C30.0006083,10.3060153 29.7779227,9.73389297 29.5244083,9.17966941 L22.2694648,9.17966941 C22.5310606,8.60243312 22.8276755,8.04117789 23.1590101,7.49909995 L28.6315703,7.49909995 C28.267611,6.9001294 27.8644422,6.32768743 27.4286488,5.78560949 L24.3771965,5.78560949 C24.8492064,5.21252827 25.368507,4.67268768 25.9324046,4.16960356 C23.1778666,1.58003076 19.5164234,0.000142053967 15.5,0.000142053967 C15.4664774,0.000142053967 15.4335535,-0.000177567459 15.4000309,0.000142053967 L15.4000309,0.000142053967 L15.4000309,0.000142053967 Z" id="path-3" fill="#FF4000" sketch:type="MSShapeGroup"></path>
                <path d="M4.50179611,19.9518815 L5.45851595,14.1461807 L5.59873227,19.9518815 L6.68141879,19.9518815 L8.70116069,14.1461807 L7.80656921,19.9518815 L9.41535192,19.9518815 L10.6542144,12.2514015 L8.16651474,12.2514015 L6.61729547,16.976365 L6.5366426,12.2514015 L4.24359289,12.2514015 L2.98677593,19.9518815 L4.50179611,19.9518815 L4.50179611,19.9518815 Z M13.0102474,13.5390625 C11.9326907,13.5390625 11.1067824,13.8952628 11.1067824,13.8952628 L10.8787884,15.2885096 C10.8787884,15.2885096 11.5604905,15.0033067 12.5910234,15.0033067 C13.176113,15.0033067 13.6041718,15.0709665 13.6041718,15.5603627 C13.6041718,15.8577019 13.5517332,15.9675354 13.5517332,15.9675354 C13.5517332,15.9675354 13.0900453,15.927789 12.8765859,15.927789 C11.5174566,15.927789 10.0899292,16.5245914 10.0899292,18.3241007 C10.0899292,19.7419236 11.0264146,20.0674797 11.6069443,20.0674797 C12.7155652,20.0674797 13.1934976,19.3271656 13.2188619,19.3247384 L13.1672783,19.9427793 L14.5509169,19.9427793 L15.1682107,15.4890619 C15.1682107,13.599744 13.5665528,13.5390625 13.0102474,13.5390625 L13.0102474,13.5390625 L13.0102474,13.5390625 Z M13.3468235,17.1650844 C13.3767478,17.4372409 13.1812429,18.7124622 12.2350678,18.7124622 C11.7468756,18.7124622 11.620054,18.3286519 11.620054,18.1017031 C11.620054,17.6590317 11.8537478,17.1277653 13.0051175,17.1277653 C13.2730105,17.1280687 13.3017947,17.1574993 13.3468235,17.1650844 L13.3468235,17.1650844 L13.3468235,17.1650844 Z M16.638772,20.0347117 C16.9927326,20.0347117 19.0161796,20.127251 19.0161796,17.9785197 C19.0161796,15.9699627 17.1432087,16.3665161 17.1432087,15.5597559 C17.1432087,15.157741 17.4484358,15.0312201 18.0064511,15.0312201 C18.2278902,15.0312201 19.0803028,15.1037345 19.0803028,15.1037345 L19.2783725,13.6758993 C19.2783725,13.6762027 18.7269121,13.5487716 17.8286157,13.5487716 C16.6661313,13.5487716 15.4862623,14.0263348 15.4862623,15.6604871 C15.4862623,17.5118791 17.4538506,17.3261938 17.4538506,18.1059508 C17.4538506,18.6265979 16.9040999,18.669075 16.4806012,18.669075 C15.7473154,18.669075 15.0872728,18.4102684 15.0849929,18.4224047 L14.8755234,19.8359799 C14.9134274,19.8478127 15.3203967,20.0347117 16.638772,20.0347117 L16.638772,20.0347117 L16.638772,20.0347117 Z M21.6529301,19.8669274 L21.8495751,18.4924919 C21.7421328,18.4924919 21.583962,18.5398234 21.4446007,18.5398234 C20.8976999,18.5398234 20.8372817,18.2403603 20.8720506,18.0191763 L21.3140741,15.2144782 L22.1453973,15.2144782 L22.3460319,13.6938003 L21.5623025,13.6938003 L21.7218984,12.7483828 L20.1504496,12.7483828 C20.1156806,12.7841849 19.2227991,18.0662044 19.2227991,18.7094281 C19.2227991,19.6615206 19.7423405,20.0856841 20.4747711,20.0790092 C21.048461,20.0738513 21.4953293,19.9106181 21.6529301,19.8669274 L21.6529301,19.8669274 L21.6529301,19.8669274 Z M41.9053527,19.9625007 C42.3630506,17.2858406 42.4476935,15.1122299 43.5389297,15.509997 C43.7304446,14.4741641 43.9148348,14.073363 44.1234494,13.6349393 C44.1234494,13.6349393 44.025412,13.6137007 43.8202174,13.6137007 C43.1165708,13.6137007 42.5953196,14.6031123 42.5953196,14.6031123 L42.7352509,13.6944071 L41.2720994,13.6944071 L40.2920102,19.9625007 L41.9053527,19.9625007 L41.9053527,19.9625007 Z M49.4146203,18.9955413 C49.4944181,18.9955413 49.5730761,19.0164764 49.6488841,19.0595603 C49.725262,19.1008237 49.7848255,19.1618086 49.8275744,19.2409979 C49.8703232,19.3195804 49.8911277,19.401197 49.8911277,19.4867579 C49.8911277,19.5714086 49.8703232,19.6530252 49.8281445,19.7310009 C49.7862505,19.8089766 49.7275419,19.8699615 49.6517341,19.9130453 C49.5762111,19.9558258 49.496698,19.9776711 49.4146203,19.9776711 C49.3316874,19.9776711 49.2521746,19.9558258 49.1763666,19.9130453 C49.1008435,19.8696581 49.0421351,19.8089766 49.0002412,19.7310009 C48.9577773,19.6530252 48.9366878,19.5714086 48.9366878,19.4867579 C48.9366878,19.401197 48.9580623,19.3195804 49.000811,19.2409979 C49.043845,19.1618086 49.1034085,19.1011271 49.1795015,19.0595603 C49.2561644,19.0164764 49.3348224,18.9955413 49.4146203,18.9955413 L49.4146203,18.9955413 L49.4146203,18.9955413 Z M49.4146203,19.0765511 C49.3479321,19.0765511 49.2826688,19.0941487 49.2188303,19.1299508 C49.1552771,19.1651461 49.1056884,19.2155117 49.0697793,19.2816545 C49.0341553,19.3471905 49.0162008,19.4154572 49.0162008,19.4864545 C49.0162008,19.5574519 49.0335853,19.6254151 49.0683543,19.6900409 C49.1039785,19.7546667 49.1532822,19.8053357 49.2168354,19.842048 C49.2798188,19.8775467 49.3456521,19.8957511 49.4146203,19.8957511 C49.4833035,19.8957511 49.5497067,19.8775467 49.6126901,19.842048 C49.6753883,19.8053357 49.724692,19.7546667 49.7597462,19.6900409 C49.7950852,19.6248083 49.8121848,19.5574519 49.8121848,19.4864545 C49.8121848,19.4154572 49.7942303,19.3471905 49.7586061,19.2816545 C49.7232671,19.2155117 49.6736784,19.1651461 49.6098402,19.1299508 C49.5465718,19.0944521 49.4815935,19.0765511 49.4146203,19.0765511 L49.4146203,19.0765511 L49.4146203,19.0765511 Z M49.2057207,19.7580041 L49.2057207,19.2294684 L49.382416,19.2294684 C49.4425495,19.2294684 49.4864383,19.234323 49.5132277,19.2446388 C49.540017,19.2540444 49.5613913,19.2710353 49.5776359,19.2956113 C49.5938806,19.3198839 49.6021454,19.3453701 49.6021454,19.3726767 C49.6021454,19.4115129 49.5884657,19.4451911 49.5613913,19.4737114 C49.5351722,19.5019283 49.499548,19.5186157 49.4553741,19.5216498 C49.4730436,19.5295384 49.4875784,19.538944 49.4989779,19.5495633 C49.5194976,19.5704984 49.5448619,19.6053902 49.574786,19.6542388 L49.6374844,19.7577007 L49.536027,19.7577007 L49.4909983,19.6745671 C49.4550891,19.6090311 49.4263049,19.5680711 49.4040755,19.5516871 C49.388971,19.5395508 49.3667414,19.5334827 49.3376723,19.5334827 L49.2892235,19.5334827 L49.2892235,19.7580041 L49.2057207,19.7580041 L49.2057207,19.7580041 Z M49.2886537,19.4606649 L49.389256,19.4606649 C49.4374196,19.4606649 49.4699089,19.4530797 49.4870083,19.4385161 C49.5046778,19.4239526 49.5137977,19.4042311 49.5137977,19.3799585 C49.5137977,19.3641813 49.5095227,19.3502246 49.5012581,19.3383917 C49.4927082,19.3256486 49.4810234,19.3165464 49.4659189,19.3101748 C49.4505293,19.3041067 49.4234551,19.3010726 49.3829861,19.3010726 L49.2886537,19.3010726 L49.2886537,19.4606649 L49.2886537,19.4606649 Z M38.4828777,13.5390625 C37.405321,13.5390625 36.5794127,13.8952628 36.5794127,13.8952628 L36.3517037,15.2885096 C36.3517037,15.2885096 37.0334057,15.0033067 38.0639387,15.0033067 C38.6490284,15.0033067 39.0768021,15.0709665 39.0768021,15.5603627 C39.0768021,15.8577019 39.0246484,15.9675354 39.0246484,15.9675354 C39.0246484,15.9675354 38.5629606,15.927789 38.3492161,15.927789 C36.9903719,15.927789 35.5628444,16.5245914 35.5628444,18.3241007 C35.5628444,19.7419236 36.4990448,20.0674797 37.0795747,20.0674797 C38.1881954,20.0674797 38.6661278,19.3271656 38.6914921,19.3247384 L38.6399085,19.9427793 L40.0238322,19.9427793 L40.6408409,15.4890619 C40.6411259,13.599744 39.039183,13.5390625 38.4828777,13.5390625 L38.4828777,13.5390625 L38.4828777,13.5390625 Z M38.8200238,17.1650844 C38.849948,17.4372409 38.6541582,18.7124622 37.707698,18.7124622 C37.2197908,18.7124622 37.0932542,18.3286519 37.0932542,18.1017031 C37.0932542,17.6590317 37.326948,17.1277653 38.4780329,17.1277653 C38.7459257,17.1280687 38.7744249,17.1574993 38.8200238,17.1650844 L38.8200238,17.1650844 L38.8200238,17.1650844 Z M28.7127646,19.9625007 C29.1698926,17.2858406 29.2548203,15.1122299 30.3463415,15.509997 C30.5372866,14.4741641 30.7216768,14.073363 30.9302912,13.6349393 C30.9302912,13.6349393 30.8325388,13.6137007 30.6273442,13.6137007 C29.9236977,13.6137007 29.4021614,14.6031123 29.4021614,14.6031123 L29.5423777,13.6944071 L28.0792262,13.6944071 L27.098852,19.9625007 L28.7127646,19.9625007 L28.7127646,19.9625007 Z M47.8733808,12.257773 L47.5345248,14.4219781 C47.5345248,14.4219781 46.9428803,13.5812361 46.0169395,13.5812361 C44.5771574,13.5812361 43.3770541,15.367699 43.3770541,17.4205535 C43.3770541,18.7455336 44.0171472,20.0438139 45.3258328,20.0438139 C46.267163,20.0438139 46.7889843,19.368429 46.7889843,19.368429 L46.7197312,19.9452065 L48.248146,19.9452065 L49.4485344,12.2550424 L47.8733808,12.257773 L47.8733808,12.257773 Z M47.1437999,16.4778667 C47.1437999,17.3319585 46.7328407,18.4730738 45.8807132,18.4730738 C45.3152881,18.4730738 45.050245,17.9845879 45.050245,17.2178773 C45.050245,15.9638945 45.5974306,15.1368059 46.2879675,15.1368059 C46.8536776,15.1365025 47.1437999,15.5363935 47.1437999,16.4778667 L47.1437999,16.4778667 L47.1437999,16.4778667 Z M34.857203,19.8663206 L35.1382057,18.1032201 C35.1382057,18.1032201 34.3673009,18.5012907 33.8380699,18.5012907 C32.7234641,18.5012907 32.2763109,17.6250501 32.2763109,16.6841837 C32.2763109,14.7751443 33.2353106,13.7247479 34.3031775,13.7247479 C35.1037215,13.7247479 35.7463796,14.1874441 35.7463796,14.1874441 L36.0028728,12.4744059 C36.0028728,12.4744059 35.049858,12.077549 34.2330693,12.077549 C32.419092,12.077549 30.6544186,13.6971378 30.6544186,16.738797 C30.6544186,18.7555461 31.6071484,20.087808 33.4823992,20.087808 C34.0124851,20.087808 34.857203,19.8663206 34.857203,19.8663206 L34.857203,19.8663206 L34.857203,19.8663206 Z M22.1508122,17.2460942 C22.1508122,19.5316622 23.6165286,20.0744581 24.8653656,20.0744581 C26.0178753,20.0744581 26.5251621,19.80928 26.5251621,19.80928 L26.8018898,18.2497659 C26.8018898,18.2497659 25.9252528,18.6472296 25.1332586,18.6472296 C23.4458179,18.6472296 23.7413553,17.3525902 23.7413553,17.3525902 L26.9349813,17.3525902 C26.9349813,17.3525902 27.1410308,16.304621 27.1410308,15.8777268 C27.1410308,14.81216 26.6257644,13.5138797 24.9004198,13.5138797 C23.3204214,13.5141831 22.1508122,15.2660575 22.1508122,17.2460942 L22.1508122,17.2460942 L22.1508122,17.2460942 Z M24.9064047,14.9620433 C25.7933013,14.9620433 25.6297156,15.9875603 25.6297156,16.0706939 L23.8849914,16.0706939 C23.8849914,15.9648047 24.0500022,14.9620433 24.9064047,14.9620433 L24.9064047,14.9620433 L24.9064047,14.9620433 Z" id="path-5" fill="#FFFFFF" sketch:type="MSShapeGroup"></path>
            </g>
        </g>
    </g>
</svg>