<?xml version="1.0" encoding="UTF-8" standalone="no"?>
<svg width="52px" height="32px" viewBox="0 0 52 32" version="1.1" xmlns="http://www.w3.org/2000/svg" xmlns:xlink="http://www.w3.org/1999/xlink" xmlns:sketch="http://www.bohemiancoding.com/sketch/ns">
    <!-- Generator: Sketch 3.3.3 (12081) - http://www.bohemiancoding.com/sketch -->
    <title>visa</title>
    <desc>Created with Sketch.</desc>
    <defs></defs>
    <g id="Page-1" stroke="none" stroke-width="1" fill="none" fill-rule="evenodd" sketch:type="MSPage">
        <g id="visa" sketch:type="MSArtboardGroup" fill="#242D69">
            <path d="M10.6662383,26.8507452 L14.7879115,16.2802061 L19.2473946,16.2802061 L12.6194133,31.7512276 L8.16504466,31.7565302 L4.42195032,18.2934321 C3.12786588,17.5733931 1.65126196,16.994607 0,16.5935595 L0.05376108,16.2708558 L6.84249874,16.2708558 C7.75668924,16.305344 8.49592224,16.5981705 8.75072108,17.5796642 L10.2267812,24.7021099 L10.6662383,26.8507452 L10.6662383,26.8507452 Z M45.3390708,16.2835653 C44.331367,16.2835653 43.5771172,16.5602288 43.1344466,17.569668 L36.8820754,31.7746018 L41.3028104,31.7746018 C41.3028104,31.7746018 42.025777,29.8648906 42.1893208,29.445651 C42.6725834,29.445651 46.9670094,29.4523002 47.5809428,29.4523002 C47.707084,29.9947686 48.0932246,31.774939 48.0932246,31.774939 L52,31.7746024 L48.5925026,16.2835482 L45.3390708,16.2835653 L45.3390708,16.2835653 Z M45.078157,21.9420455 C45.053499,21.983036 45.423704,21.0445527 45.6363998,20.4626099 L45.9213082,21.7986223 C45.9213082,21.7986223 46.7271394,25.4991109 46.8956324,26.2750624 L43.4008292,26.2748098 C43.7490586,25.3816057 45.078157,21.9420455 45.078157,21.9420455 L45.078157,21.9420455 Z M34.023122,16.0000001 C29.863306,15.9995792 26.9327742,18.1022855 26.9079698,21.1153634 C26.8845698,23.3425566 28.9999522,24.5851445 30.5969326,25.3265841 C32.235679,26.0857864 32.7865442,26.5707664 32.7787426,27.2493402 C32.7684262,28.2878142 31.4701078,28.7629498 30.2600234,28.7629498 C28.5749814,28.7627814 27.679742,28.5281184 26.297137,27.9493748 L25.7546616,27.7025914 L25.1637904,31.1726216 C26.1472568,31.6055024 27.9654868,31.980477 29.8534174,32 C34.278936,31.9997476 37.1518272,29.9217004 37.1844862,26.7042598 C37.200422,24.9406685 36.078734,23.5990138 33.6499252,22.4927012 C32.1784138,21.7752475 31.277056,21.2971663 31.2866176,20.5711247 C31.2867014,19.926642 32.049419,19.237803 33.6975614,19.237803 C35.0744674,19.2158349 36.0715172,19.5175804 36.8484984,19.8316172 L37.2259162,20.0101397 L37.7965718,16.650959 C36.9624536,16.3363372 35.6554134,16.0000001 34.023122,16.0000001 L34.023122,16.0000001 Z M20.9511434,16.2688354 L25.1612238,16.2688354 L22.527229,31.7699112 L18.3188612,31.7699112 L20.9511434,16.2688354 L20.9511434,16.2688354 Z" id="Shape" sketch:type="MSShapeGroup"></path>
        </g>
    </g>
</svg>